<?xml version="1.0" standalone="no"?>
<!DOCTYPE svg PUBLIC "-//W3C//DTD SVG 20010904//EN"
 "http://www.w3.org/TR/2001/REC-SVG-20010904/DTD/svg10.dtd">
<svg version="1.0" xmlns="http://www.w3.org/2000/svg"
 width="202.000000pt" height="46.000000pt" viewBox="0 0 202.000000 46.000000"
 preserveAspectRatio="xMidYMid meet">
<metadata>
Created by potrace 1.10, written by Peter Selinger 2001-2011
</metadata>
<g transform="translate(0.000000,46.000000) scale(0.100000,-0.100000)"
fill="#1da57a" stroke="none">
<path d="M290 436 c0 -27 32 -40 108 -43 77 -2 101 -15 80 -40 -15 -18 -32
-16 -53 7 -10 11 -24 20 -30 20 -7 0 -24 -9 -38 -20 -15 -12 -40 -20 -65 -20
-50 0 -80 -28 -61 -58 18 -28 -21 -82 -60 -82 -15 0 -32 -5 -39 -12 -18 -18
-15 -56 5 -67 14 -7 29 7 86 82 37 51 72 92 76 92 5 0 29 -26 55 -57 46 -56
49 -58 95 -58 44 0 51 -3 72 -35 23 -33 27 -34 94 -37 62 -3 70 -5 70 -23 0
-19 -8 -20 -162 -23 -152 -2 -163 -4 -174 -23 -13 -25 -2 -41 12 -16 9 15 28
17 160 17 152 0 181 6 193 36 13 34 -22 54 -93 54 l-66 1 -78 104 c-43 58 -81
105 -86 105 -5 0 -16 -11 -25 -25 -9 -14 -21 -25 -27 -25 -5 0 2 16 17 35 14
19 31 35 38 35 6 0 40 -41 75 -90 70 -97 88 -107 132 -71 21 16 22 22 11 45
-10 23 -17 26 -66 26 -49 0 -57 3 -76 30 -16 22 -18 30 -7 30 8 0 22 9 33 21
19 21 18 21 -10 46 -26 22 -37 24 -93 21 -53 -2 -67 0 -77 15 -16 21 -26 22
-26 3z m45 -116 c-3 -5 -17 -10 -29 -10 -13 0 -29 -7 -36 -15 -7 -8 -17 -12
-23 -8 -17 10 32 43 65 43 17 0 27 -4 23 -10z m104 -65 l42 -55 -40 0 c-34 0
-43 5 -58 30 -9 17 -21 30 -25 30 -5 0 -1 11 8 25 9 14 20 25 24 25 4 0 26
-25 49 -55z m155 -16 c12 -11 -12 -39 -35 -39 -9 0 -27 12 -37 28 l-20 27 41
-3 c23 -2 46 -8 51 -13z m-421 -74 c-21 -28 -33 -32 -33 -10 0 12 24 29 48 34
2 1 -5 -10 -15 -24z"/>
<path d="M922 403 c2 -14 15 -19 51 -21 51 -3 64 -19 20 -24 -22 -2 -29 -9
-31 -30 -4 -34 -42 -41 -42 -8 0 11 7 20 15 20 8 0 15 5 15 11 0 6 -10 9 -22
7 -19 -2 -23 -9 -23 -38 0 -28 4 -35 24 -40 l25 -6 -27 -21 c-15 -11 -27 -24
-27 -27 0 -13 25 -5 46 15 l23 21 27 -21 c28 -22 104 -30 104 -11 0 6 -15 10
-33 10 -18 0 -44 8 -57 18 l-25 17 35 5 c42 6 50 33 25 86 -15 31 -20 34 -60
34 -25 0 -45 5 -45 10 0 6 -5 10 -11 10 -6 0 -9 -8 -7 -17z m118 -83 c0 -16
-7 -20 -30 -20 -23 0 -30 4 -30 20 0 16 7 20 30 20 23 0 30 -4 30 -20z"/>
<path d="M1639 415 c-1 -5 -1 -13 0 -17 0 -5 -12 -8 -29 -8 -16 0 -30 -4 -30
-10 0 -5 14 -10 30 -10 17 0 30 -4 30 -10 0 -5 -16 -10 -35 -10 -19 0 -35 -4
-35 -10 0 -5 16 -10 35 -10 28 0 35 -4 35 -20 0 -21 -15 -27 -25 -10 -3 6 -15
10 -26 10 -17 0 -19 -7 -19 -60 0 -73 18 -80 22 -10 l3 51 70 -51 69 -50 101
0 c66 0 107 4 118 13 22 16 59 105 46 112 -5 4 -18 -15 -30 -42 -11 -26 -26
-51 -32 -55 -7 -4 -53 -8 -103 -8 -85 0 -92 2 -132 31 -48 35 -56 59 -17 51
18 -3 25 0 25 11 0 9 -11 17 -27 20 -23 3 -21 4 10 6 47 1 49 21 2 21 -19 0
-35 5 -35 10 0 6 11 10 25 10 14 0 25 5 25 10 0 6 -10 10 -21 10 -12 0 -28 8
-35 18 -7 9 -14 13 -15 7z"/>
<path d="M1889 415 c0 -5 0 -22 1 -37 1 -22 -3 -28 -19 -28 -16 0 -21 6 -21
25 0 14 -4 25 -10 25 -5 0 -10 -11 -10 -25 0 -20 -5 -25 -25 -25 -14 0 -25 -4
-25 -10 0 -5 25 -10 55 -10 l55 0 0 -56 c0 -34 4 -53 10 -49 6 3 10 28 10 56
l0 49 50 0 c28 0 50 5 50 10 0 6 -22 10 -50 10 -27 0 -50 5 -50 10 0 6 18 10
40 10 22 0 40 5 40 10 0 6 -16 10 -36 10 -23 0 -42 6 -50 18 -7 9 -14 13 -15
7z"/>
<path d="M1172 398 c-7 -7 -12 -44 -12 -95 0 -99 8 -95 -165 -91 l-120 3 -3
58 c-2 40 -7 57 -15 54 -17 -5 -13 -117 4 -128 20 -12 276 -11 300 1 16 9 19
22 19 96 0 77 2 86 20 91 11 3 17 9 14 14 -7 13 -28 11 -42 -3z"/>
<path d="M1512 379 c2 -6 8 -10 13 -10 5 0 11 4 13 10 2 6 -4 11 -13 11 -9 0
-15 -5 -13 -11z"/>
<path d="M41 353 c-1 -27 26 -43 71 -43 42 0 63 -13 55 -34 -5 -12 -21 -16
-70 -16 -49 0 -68 -4 -80 -18 -21 -23 -21 -36 -1 -56 17 -18 94 -22 94 -6 0 6
-18 10 -39 10 -43 0 -55 9 -45 34 5 12 21 16 73 16 62 0 69 2 81 25 20 37 -9
65 -65 65 -33 0 -46 5 -58 23 l-16 22 0 -22z"/>
<path d="M842 359 c2 -6 8 -10 13 -10 5 0 11 4 13 10 2 6 -4 11 -13 11 -9 0
-15 -5 -13 -11z"/>
<path d="M1210 295 c0 -41 4 -75 9 -75 5 0 25 22 45 49 61 83 61 83 117 21 59
-66 65 -52 9 19 -24 30 -48 51 -60 51 -12 0 -36 -21 -60 -51 l-40 -51 0 56 c0
31 -4 56 -10 56 -6 0 -10 -32 -10 -75z"/>
<path d="M1435 359 c-4 -5 -4 -37 0 -69 4 -32 4 -64 0 -70 -4 -6 -26 13 -51
45 -25 30 -49 55 -54 55 -10 0 -100 -110 -100 -122 0 -5 47 -8 105 -8 124 0
125 1 125 109 0 65 -9 87 -25 60z m-65 -109 l32 -40 -72 0 -71 0 32 40 c18 22
36 40 40 40 4 0 22 -18 39 -40z"/>
<path d="M1517 343 c-11 -11 -8 -153 3 -153 6 0 10 28 10 65 0 49 4 67 15 71
8 4 15 10 15 15 0 10 -33 12 -43 2z"/>
<path d="M1820 288 c-22 -36 -25 -48 -11 -48 8 0 51 64 51 76 0 15 -23 -1 -40
-28z"/>
<path d="M1060 265 c0 -9 5 -15 11 -13 6 2 11 8 11 13 0 5 -5 11 -11 13 -6 2
-11 -4 -11 -13z"/>
<path d="M231 194 c-29 -41 -51 -77 -48 -80 2 -3 59 -3 126 -2 l122 3 -58 78
c-31 42 -64 77 -73 77 -8 0 -39 -34 -69 -76z m119 -4 l41 -55 -45 -3 c-25 -2
-66 -2 -90 0 l-45 3 42 57 c23 32 45 56 49 55 4 -1 26 -27 48 -57z"/>
<path d="M840 131 c0 -5 7 -14 15 -21 8 -7 15 -25 15 -41 0 -20 5 -29 16 -29
12 0 15 6 11 22 -4 15 1 30 15 45 25 27 16 44 -11 19 -16 -15 -19 -15 -31 -1
-14 17 -30 20 -30 6z"/>
<path d="M948 90 c-18 -36 -21 -50 -11 -50 7 0 13 5 13 10 0 14 43 13 58 -2 6
-6 14 -9 17 -6 7 7 -36 98 -46 98 -3 0 -18 -22 -31 -50z m42 0 c0 -5 -4 -10
-10 -10 -5 0 -10 5 -10 10 0 6 5 10 10 10 6 0 10 -4 10 -10z"/>
<path d="M1030 130 c0 -5 10 -10 21 -10 19 0 21 -4 16 -40 -4 -30 -2 -40 9
-40 10 0 14 12 14 40 0 28 4 40 14 40 8 0 18 5 21 10 4 6 -13 10 -44 10 -28 0
-51 -4 -51 -10z"/>
<path d="M1183 120 c-3 -13 -14 -20 -29 -20 -12 0 -26 -5 -30 -11 -4 -7 5 -10
27 -8 61 4 89 -1 89 -15 0 -9 -8 -12 -24 -9 -13 3 -27 0 -30 -6 -5 -7 7 -11
34 -11 39 0 41 1 38 27 -2 22 -9 29 -30 31 -38 4 -36 22 2 22 17 0 30 5 30 10
0 6 -16 10 -36 10 -27 0 -37 -5 -41 -20z"/>
<path d="M1277 123 c-3 -10 -4 -31 -3 -48 2 -28 6 -30 44 -33 25 -2 42 1 42 7
0 6 -13 11 -30 11 -16 0 -30 5 -30 10 0 6 14 10 31 10 17 0 28 4 24 10 -3 6
-17 10 -31 10 -13 0 -24 5 -24 10 0 6 14 10 30 10 17 0 30 5 30 10 0 6 -18 10
-39 10 -29 0 -41 -5 -44 -17z"/>
<path d="M1370 90 c0 -27 5 -50 10 -50 6 0 10 16 10 35 l0 36 31 -36 c17 -19
35 -35 40 -35 5 0 9 23 9 50 0 28 -4 50 -10 50 -5 0 -10 -14 -10 -32 l0 -32
-33 32 c-18 18 -36 32 -40 32 -4 0 -7 -22 -7 -50z"/>
<path d="M1537 133 c-4 -3 -7 -26 -7 -50 0 -32 4 -43 15 -43 8 0 15 9 15 20 0
15 7 20 26 20 21 0 24 -4 19 -20 -5 -14 -2 -20 9 -20 13 0 16 11 16 51 0 36
-4 49 -12 46 -7 -2 -12 -11 -10 -21 2 -11 -4 -16 -23 -16 -18 0 -25 5 -25 20
0 20 -11 26 -23 13z"/>
<path d="M1640 90 c0 -27 5 -50 10 -50 6 0 10 23 10 50 0 28 -4 50 -10 50 -5
0 -10 -22 -10 -50z"/>
<path d="M1680 90 c0 -27 5 -50 10 -50 6 0 10 10 10 22 l0 21 25 -23 c14 -13
28 -20 32 -16 5 4 -3 17 -17 28 l-25 20 24 19 c13 11 21 22 17 26 -3 4 -17 -4
-31 -17 l-25 -23 0 21 c0 12 -4 22 -10 22 -5 0 -10 -22 -10 -50z"/>
<path d="M1780 90 c0 -27 4 -50 8 -50 5 0 9 23 9 50 0 28 -3 50 -8 50 -5 0 -9
-22 -9 -50z"/>
<path d="M1810 90 c0 -27 5 -50 10 -50 6 0 10 16 10 35 l0 36 31 -36 c17 -19
35 -35 40 -35 5 0 9 23 9 50 0 28 -4 50 -10 50 -5 0 -10 -14 -10 -32 l0 -32
-33 32 c-18 18 -36 32 -40 32 -4 0 -7 -22 -7 -50z"/>
<path d="M1928 128 c-3 -7 -4 -29 -4 -48 1 -34 2 -35 44 -38 24 -2 43 1 43 7
5 40 2 46 -18 49 -13 2 -23 -1 -23 -7 0 -6 7 -11 15 -11 8 0 15 -4 15 -10 0
-5 -11 -10 -25 -10 -21 0 -25 5 -25 30 0 27 3 30 29 30 17 0 33 5 36 10 4 6
-11 10 -38 10 -27 0 -47 -5 -49 -12z"/>
</g>
</svg>
