<svg xmlns="http://www.w3.org/2000/svg" width="228" height="50" fill-rule="evenodd" version="1" viewBox="0 0 175 39" shape-rendering="geometricPrecision" text-rendering="geometricPrecision" image-rendering="optimizeQuality" clip-rule="evenodd">
  <defs>
    <style>
<![CDATA[
    .str0 {stroke:#FEFEFE;stroke-width:0.363799;stroke-linejoin:round}
    .fil2 {fill:none;fill-rule:nonzero}
    .fil1 {fill:#FEFEFE}
    .fil0 {fill:#FEFEFE;fill-rule:nonzero}
   ]]>
    </style>
  </defs>
  <g id="图层_x0020_1">
    <g id="_1274960697248">
      <path d="M27 17l8 11h-1l-8-11h1zm-1 0zm1 0h-1 1zm0 0zm-1 0v-1h1v1h-1zm0-1zm0 1v-1 1zm0 0v-1 1zm0-1zm0 1h-1 1v-1 1zm0 0zm-1 0h1-1zm1 0zm-9 11l8-11h1l-8 11h-1zm1 0h-1 1zm17 0H18h17zm0 0h1-1zm8-24l-1 1V4h-2V3h2v1h1zm0 0zm1 3h-1V5h-1l1-1v1h1v2zm-1 3l-1-1h1V7h1v2h-1v1zm-3 1v-1h2V9l1 1h-1v1h-2zm-2-1h2v1h-2v-1zm0 1v-1 1zm4 5l-4-5 1-1 4 6h-1zm0 0zm7 0h-7v-1h7v1zm3 1h-1v-1h-2v-1h2v1h1v1zm2 2h-1v-1h-1v-1h1v1h1v1zm-2 3v-1h1v-2h1v2h-1v1h-1zm-3 1v-1h3v1h-3zm-1-1h1v1h-1v-1zm-1 0h1v1h-1v-1zm-1 0h1v1h-1v-1zm0 1zM37 9l10 14h-1L36 10V9h1zm-1 0h1-1zm0 0v1-1zm0 1zm1-1l-1 1 1-1zm0 0h-1 1zm-3-1V7h1v1h1v1h1l-1 1V9h-1V8h-1zm-2 2l-1-1h1V8h1V7h1v1h-1v1h-1v1zm0 0zm-1-1l1 1-1-1zm1 1zm0-1v1-1zm0 1zm-4 3l3-4 1 1-3 4h-1v-1zm0 1v-1 1zm1 0h-1l1-1v1zm0 0zm0 0zm0 0zm0 1v-1l1 1h-1zm1 0v1l-1-1h1zm3-4l-3 4h-1l3-4h1zm-1 0l1-1v1h-1zm0 0h1-1zm1 0v1l-1-1h1zm0-1v1h-1v-1h1zm0 1h1-1zm1-1v1h-1v-1h1zm1 0v1h-1v-1h1zm0 1zm1 0h-1v-1h1v1zm-1 0zm0 0h1-1zm1 0zm12 17L35 11h1l12 17zm0 0zm10 0H48h10zm0 0zm0 0zm0 0zm0 0zm3 1h-3v-1h3v1zm1 3h-1v-2h-1v-1h2v3zm-1 2h-1 1v-2h1v2h-1zm0 0zm-3 2v-1h1v-1h2v1h-2v1h-1zm-15-1h15v1H43v-1zm-9 0h9v1h-9v-1zm-2 1v-1h2v1h-2zm-1 2v-2h1v2h-1zm0 1v-1 1zm-1-1h1v1h-1v-1zm1-3v2h-1v1-3h1zm0 0zm3-1v1h-3v1-2h3zm9 1h-9v-1h9v1zm15 0H43v-1h15v1zm2-2v1h-1v1h-1v-1h1v-1h1zm0-1h1v1h-1v1-2zm0-2v-1 1h1v2h-1v-2zm-2-1h2v1h-2v-1zm-9 0h9-9zm-1 0h1-1zm-1 0h1-1zm0 0zm-4-6l5 6h-1l-4-6v-1 1zm0-1v1-1zm-7 0h7v1h-7v-1zm-2 0h2v1h-2v-1zm0 0v1-1zm0 1zm-5-8l6 8h-1l-6-8h1zm-1 0v-1l1 1h-1zm0 0h1-1zm1 0v1l-1-1h1zm0 0h-1 1zm-3-1v-1h2v1h1v1h-1v-1h-2zm-2 1v-2h2v1h-1v1h-1zm0 0h-1 1zm-1 0h1-1zm1 0v1-1zm0 0h-1 1zm-1 0l1-1v1h-1zm-5 7l5-7h1l-5 7h-1zm1 0zm-1 1v-1h1l-1 1zm0 0zm-5 6l5-6-4 6h-1zm1 0h-1 1zm-1 0zm0 0v-1 1zm0 0h1-1zm1 0h-1 1zm-2 0l1-1v1h-1zm0 0zm1-1l-1 1 1-1zm0 0zm0 0l-1 1 1-1zm0 0zm0 0l-1 1 1-1zm-1 1zm0-1l1 1v-1l-1 1v-1zm0 1v-1 1zm1 0l-1-1h1v1zm0-1v1-1zm-2 0h2l-1 1h-1v-1zm-1-3h1v2h1v1h-1v-1h-1v-2zm1-2h1l-1 1v1h-1v-1l1-1zm3-2v1h-1v1h-2v-1h3v-1zm3 1h-3v-1h3l1 1h-1zm1 0h-1 1zm4-6l-4 6h-1l4-6h1zm0 0zm-1 0v-1 1h1l-1 1v-1zm-2-3h1v2h1v1h-1v-2h-1v-1zm2-3v2h-1v1h-1v-1h1v-1l1-1zm3-1v1h-2v1h-1v-1h1V9h2zm0 1V9v1zm2 0h-2V9h2v1zm4 0h-4V9h4l1 1h-1zm1 0h-1 1zm0-1v1l-1-1 1-1v1zm0-1zm0 1V8v1zm0 0zm3-3v1h-1l-1 1v1h-1V7h2V6h1zm3 2v1h-1V8l-1-1h-1V6h1v1h2v1zm0 1zm0 0V8v1zm0-1zm0 2V8l1 1v1h-1zm1 0h-1 1zm2 0h-2V9h2v1zm1-1h1-1v1h-1V9h1zm1-2h1v1h-1v1h-1V8h1V7zm-1-1l1-1v1h1v1h-1V6h-1zm-1-1V4h1v1h1l-1 1V5h-1zm-5-1h5v1h-5V4zm-5 0h5v1h-5V4zm-1 0h1v1h-1V4zm-3 0l1-1v1h2v1h-1l-1-1h-1zm-1-3h1v2h1l-1 1V3h-1V1zm1-1v1h-1V0h1zm1 1h-1V0h1v1zm1 1l-1 1V2h-1V1h1v1h1zm1 1v1h-1V3h-1l1-1v1h1zm1 1h-1V3h1v1zm5 0h-5V3h5v1zm5 0h-5V3h5v1zm0 0V3v1zm0-1zm0 0zm0 0zm-2 13h-1 1zm-3-5l3 5h-1l-3-4v-1h1zm-1 1v-1 1zm0 0v-1h1l-1 1zm1-1v1h-1l1-1zm-1 1v-1h1l-1 1zm0 0zm0 0v-1 1zm0 0v-1 1zm0 0zm0 0l-1-1h1v1zm-1-1zm0 0l1 1-1-1zm1 1zm-3 3l2-4 1 1-3 3zm0 0zm0 0zm0 0zm-1 1l1-1v1h-1zm0 0zm1 1l-1-1h1l1 1h-1zm0 0h1-1zm4 5l-4-5h1l3 5zm0 0zm7 0h-7v-1h7v1zm0 0h1-1zm-3-5l3 5-4-5h1zm-1-1l1 1h-1l-1-1h1zM16 29h1-1zm-1 0h1-1zm0 0zm1-1v1h-1l1-1h1-1zm1 0h-1 1zm0 0h-1 1zm-1 0zm9-11l-9 11 8-12 1 1zm0 0zm0-1h-1 1zm0 1zm0-1h1-1v1l-1-1h1zm0 0zm1-1v1h-1v-1h1zm1 1h-1v-1h1v1zm1 0l-1 1v-1h1zm-1 1zm0 0l1-1-1 1zm1-1zm8 13l-9-12 1-1 9 13h-1zm1 0h1-1zm-1 0h1-1zm-1 0h1-1zm-18 0h18-18zm13-18l-2 2 1-3h1v1zm0-1v1-1zm-4 0h4v1h-4v-1zm-2 0h2v1h-2v-1zm0 0v1-1zm-2 2l-1-1h1v-1h2v1h-2v1zm-1 1h-1 1v-2l1 1h-1v1zm1 2h-1v-1h-1v-1h1v1h1v1zm-1 0zm1 0l1 1h-1v-1h-1 1zm1 1h-1 1zm0-2v2l-1-1 1-1zm0 0zm0 0zm0 0zm3-2v1h-2v1h-1v-1h1v-1h2zm2 1h-2v-1h2v1zm0 0zM17 23l-4 5v-1l3-4 1-1v1zm0-1v1-1zm-3 0h3v1h-3v-1zm-1 2l-1-1h2v-1 1h-1v1zm-1 1h-1v-1h1v-1l1 1h-1v1zm1 2l-1 1v-1h-1v-2h1v2h1zm-1 1v-1 1zm1-1v1h-1l1-1zm0 1zm33-6l-3-5 4 5h-1zm1 0h-1 1zm2 0h-2v-1h2v1zm2-1h1v1h-3v-1h2zm1-2h1v1h-1v1h-1v-1h1v-1zm-1-1l1-1v1l1 1h-1v-1h-1zm-2-1v-1h1v1h2l-1 1v-1h-2zm-6-1h6v1h-6v-1zm0 1l-1-1h1v1zM4 24h5v1H4v-1zm-3-1h2v1h1v1H3v-1H1v-1zm-1-2h1v1l1 1H1l-1-1v-1zm1-3h1v1H1v2H0v-2h1v-1zm1 0zm2-1v1H1h1v-1h2zm1 0H4h1zm4 0H5h4zm3 0H9h3zm2-1v1h-2 1v-1h1zm0-1h1v1h-1v1-2zm0-2v-1 1h1v2h-1v-2zm-2-1h2v1h-1v-1h-1zm-4 0h4-4zm-4-1h3v1h1-3v-1H4zM3 8h1v2h1v1H4v-1H3V8zm1-1v1H3h1V7zm1 1H4V7v1h1zm1 2H5V9H4V8h1v2h1zm2 1H5v-1h2v1h1zm4 0H8h4zm3 1h-2v-1h-1 3v1zm1 3h-1v-3h-1 2v3zm-1 2h-1 1v-2h1v2h-1zm0 0zm-3 1h1v-1h2v1h-3zm-3 0h3-3zm-4 0h4-4zm-1 0h1-1zm-1 1H2v-1h2v1H3zm-1 2H1v-2h2-1v2zm1 1l-1 1v-1H1v-1h1v1h1zm1 1v1l-1-1H2l1-1v1h1zm5 1H4v-1h6l-1 1zm0-1h1-1zm0 2v-1H8h1v-1h1l-1 1v1zm0-1v1-1z" class="fil0"/>
      <path id="1" d="M35 28l-9-11-8 11h17zm5-25c1 0 2 1 2 2 1 0 2 1 2 2s-1 2-2 3c0 0-1 1-2 1h-2l4 5h7c1 0 2 0 3 1 1 0 1 1 1 2s0 2-1 3-2 1-3 1h-3L36 9c-1-1-1-1-2-1s-1 0-2 1l-3 4v1l1 1 3-4v-1h2v1l13 17h10c1 0 2 0 3 1 0 1 1 2 1 3s-1 1-1 2c-1 1-2 1-3 1H34c-1 0-2 0-2 1-1 0-1 1-1 2h-1c0-1 0-2 1-3 1 0 2-1 3-1h24c1 0 1 0 2-1l1-1c0-1-1-2-1-2-1-1-1-1-2-1H47l-4-6h-9l-6-8c-1-1-1-2-2-2s-1 1-2 2l-5 7-1 1-5 6h-1v-1c-1-1-2-2-2-3s1-1 2-2c0-1 1-1 2-1h3l5-6h-1c-1-1-1-2-1-3s0-2 1-2c1-1 2-1 3-1h6l1-1c1-2 1-2 3-2s2 0 3 2l1 1h2s1-1 2-1V5c-1 0-2-1-2-1H29c-1 0-2 0-2-1-1 0-2-1-2-2l1-1 1 1v2h13zm-2 13l-4-5-3 4-1 1 1 1 4 5h7l-4-5v-1zM17 29h-2l1-1 9-12h2l10 13H17zm11-16l2-2h-8c-1 1-1 1-1 2s0 2 1 2l1-1c1-1 1-2 3-2 1 0 1 0 2 1zM13 28l4-5h-3s-1 0-2 1l-1 1c0 1 1 2 1 2 1 0 1 1 1 1zm30-11l4 5h2c1 0 2 0 2-1 1 0 1-1 1-2 0 0 0-1-1-1 0-1-1-1-2-1h-6zM9 24H4c-1 0-2 0-2-1-1 0-2-1-2-2s1-2 2-3c0-1 1-1 2-1h8c1 0 1 0 2-1l1-1c0-1-1-2-1-2-1-1-1-1-2-1H8c-2 0-3 0-3-1-1-1-1-2-1-3h1c0 1 0 2 1 2 0 1 1 1 2 1h4c1 0 2 0 3 1 0 1 1 2 1 3 0 0-1 1-1 2-1 1-2 1-3 1H4s-1 0-2 1v3c1 1 2 1 2 1h5v1z" class="fil0"/>
      <path d="M80 4c0-1 0-1 1-1l1 1h6c1 0 1 0 1 1h1v3c1 0 1 0 1 1 1 0 1 0 1 1v3s0 1-1 1c0 0 0 1-1 1H80l-1-1-1-1v-3c0-1 1-1 1-1 0-1 1-1 1-1h2c1 0 1 0 1 1 0 0 0 1-1 1h-2v3h4V8h5s-1-1 0-1V6h-7s-1 0-1-1c-1 0-1 0-1-1zm80 8c0-1 1-1 1-1 1 1 1 1 0 1l-3 6h-1s-1 0 0-1l3-5zm-1-7s0-1 1-1l1 1v4h3V4c0-1 1-1 1-1s1 0 1 1v1h6c1 0 1 1 1 1 0 1 0 1-1 1h-6v2h8c1 0 1 0 1 1h-9v9l-1 1-1-1v-9h-9c0-1 0-1 1-1h3V5zm-21 17h-1v-9c0-1 0-1 1-1h2v1l2 1v-4h-5V9h5V7h-4s-1 0-1-1l1-1h4V4c0-1 1-1 1-1 1 0 1 0 1 1v1h4c1 0 1 1 1 1 0 1 0 1-1 1h-4v2h6s1 0 1 1h-7v2h4c1 0 1 0 1 1h-5v3l7 5h16s1 0 2-1c0 0 1 0 1-1l3-7h1s1 1 0 1l-3 7c0 1-1 1-2 2h-19l-7-5-4-3h-1v8zm-3-13v1c-1 0-1 0-2 1v11h-1V9h3zm-20 5l-5 7h12l-5-7c-1 0-1-1-1-1-1 0-1 1-1 1zm9 7h1V8c0-1 0-1 1-1 0 0 1 0 1 1v11c0 1-1 2-1 3h-19v-1l6-8c1-1 2-1 3-1s1 0 2 1l6 8zm0-4c1 0 0 1 0 1h-1l-6-8-1-1c-1 0-1 0-1 1h-1l-7 10h-1c-1 0-1 0-1-1V8c0-1 1-1 1-1 1 0 1 0 1 1v9l6-8s1 0 1-1h4v1l6 8zm-31-2c1 0 1 1 1 1 0 1 0 1-1 1 0 0-1 0-1-1l1-1zm40-10c1 0 1 1 1 1 0 1 0 1-1 1s-1 0-1-1c0 0 0-1 1-1zM74 7c1 0 2 1 2 1 0 1-1 1-2 1 0 0-1 0-1-1l1-1zm0 4h1v8c0 1 0 1 1 1 0 1 1 1 1 1h21c1 0 2 0 2-1 1 0 1-1 1-2V8c0-2 0-3 1-3 1-1 2-1 3-1h1c0 1-1 1-1 1-1 0-2 0-2 1v12c0 1-1 2-1 3-1 1-2 1-4 1H75c-1-1-1-2-1-3v-8zm6 9c-1 1-1 0-1 0-1 0-1-1 0-1l3-3c2-2 3-2 4 0l4 3h5s1 0 1 1h-7l-4-3c0-1-1-1-1 0l-4 3zm5-7h5v-3h-5V9v4z" class="fil0"/>
      <path id="1" d="M89 4v1h1-1V4h-7 7zm1 3V6v1zm0 1h1v1c1 0 1 0 1 1v3s0 1-1 1l-1 1H80v-1h-1s0-1-1-1V9h1c0-1 1-1 1-1h3v1h-1v1h-2v3h4V8h1-1v5h-4v-3h2l1-1V8h-3s-1 0-1 1c-1 0-1 1-1 1v3l1 1h1v1h10c1 0 1-1 1-1 1 0 1 0 1-1v-3c0-1 0-1-1-1V8h-1V7v1zm-5 0h4V7v1h-4m-3-2h-1V5h-1 1v1h1m-2-2V3v1zm0-1zm0 0h1-1zm1 0l1 1-1-1zm1 1zm0 0zm7 3V6h-1 1v1zm-1-1h-6 6zm-8-1zm80 7v-1 1l-3 5v1h1l3-6h1c-1 0-1-1-1-1 0 1 1 1 1 1h-1l-3 6h-1v-1l3-5zm-1-7c0-1 1-1 1-1l1 1v4-4l-1-1h-1v5h-4v1h9v9c1 0 1 1 1 1s0-1 1-1v-9h9V9h-9 9v1h-9v9s-1 0-1 1l-1-1v-9h-9V9h4V5zm2 4h3V4c0-1 0-1 1-1s1 0 1 1v1-2h-2v6h-3zm5-4h6l1 1v1h-7v2-2h7V6c-1 0-1-1-1-1h-6zm-28 17h-1v-9c0-1 0-1 1-1h-1v10h1v-8h1l4 3 7 5h1-1l-7-5-4-3h-1v8zm0-10h2v1l2 1v-4h-5V9h5V7h-5V6c1 0 1 0 1-1h4V4c0-1 1-1 1-1h1v2-2h-1c-1 0-1 1-1 1v1h-4v1h-1l1 1h4v2h-5v1h5v4l-2-1v-1h-2zm6-7h4l1 1v1h-5v2-2h5V6l-1-1h-4zm0 4h7v1h-7v2-2h7c0-1 0-1-1-1h-6zm0 3h4c1 0 1 0 1 1h-5v3-3h5v-1h-5zm0 4l7 5h16-16l-7-5zm23 5c1 0 1 0 1-1v1h-1zm2-1l1-1 3-7-3 7s0 1-1 1zm4-8zm1 0zm0 0v1l-3 7c0 1-1 1-2 2 1-1 1-1 2-1v-1l3-7v-1zm-5 10zm0 0h-18 18zM135 9v1h-1 1V9h-3v13h1V11v11h-1V10m2 1h-1c1 0 1-1 1-1m-1 1zm-1-1V9h3m-20 5l-5 7h12l-5-7c-1 0-1-1-1-1v1h1l5 7h-12l5-7zm1-1l-1 1 1-1zm8 8l-6-8-1-1h-1c1 0 2 0 2 1l6 8zm0 0zm0 0h1V8m0 12v-1 1zm0-1V8c0-1 0-1 1-1v1h1v11l-1 1v1-1l1-1V8l-1-1h-1v12zm1 2v1h-19 19v-1zm-19 1v-1l6-8c1 0 1-1 2-1h1-2s0 1-1 1l-6 8v1zm17-5v1h-1l-6-8s-1 0-1-1c0 1 1 1 1 1l6 8h1v-1zm-8-8zm0 0h-1 1zm-1 0v1h-1l-7 10h-1 1l7-10h1V9zm-9 11c-1 0-1 0-1-1V8c0-1 1-1 1-1s1 0 1 1v9V7h-1c-1 0-1 1-1 1v12h1zm1-3l6-8s1 0 1-1h1-1c0 1 0 1-1 1l-6 8zm8-9h1-1zm1 0h2-2zm2 1l6 8m-31-2c1 0 1 1 1 1v1h-2v-1s0-1 1-1zm40-10c1 0 1 1 1 1 0 1 0 1-1 1s-1 0-1-1c0 0 0-1 1-1zM74 7c1 0 2 1 2 1l-1 1h-2V8l1-1zm0 4h1v8-8h-1v8-8zm1 9h1c0 1 1 1 1 1h21-22v-1h-1zm24 1zm0 0zm1 0v-1c1 0 1-1 1-1 0 1 0 1-1 1v1zm1-2V6v13zm0-13l1-1c0-1 0-1 1-1-1 0-1 0-1 1l-1 1zm2-2zm1 0h2c0 1-1 1-1 1-1 0-2 0-2 1v12c0 1 0 1-1 2 1-1 1-1 1-2V6s1 0 1-1h1s1 0 1-1h-2zm-2 16v1c-1 1-2 1-2 1H75c-1-1-1-1-1-2 0 1 0 1 1 2h25c1 0 1 0 2-1v-1zm-22 0h-1 1l4-3v-1 1l-4 3zm-1 0c-1 0-1 0-1-1v1h1zm-1-1h1l3-3c1-1 2-1 2-1s-1 0-2 1l-3 3h-1zm6-4h1m0 0s1 0 1 1l4 3h6v1h-7l-4-3v-1 1l4 3h7v-1h-6l-4-3c0-1-1-1-2-1m1-2h5v-3h-5V9v1h5v3h-5zm0-3v2-2zm49 0v1m-9 9v1h-1m0-4l-6-8m-24 6h-2v2h2v-2zm40-10h-2v2h2V5zM75 7h-1l-1 1s0 1 1 1h1l1-1s-1 0-1-1z" class="fil1"/>
      <path d="M76 31l-3-3h1v-1 1l3 2 2-2s0-1 1-1v1l-3 3v5s-1 0-1-1v-4zm3-3zm-2 2zm6 3l-1 2v1h-1v-1l4-7v-1s1 0 1 1l3 7v1h-1v-1l-1-2h-4zm4-1l-2-3-1 3h3zm6-4h-3v-1h7v1h-3v8c-1 0-1 0-1-1v-7zm10 3v-3h1v-1h5v1h-5v3h5v1h1v2s0 1-1 1l-1 1h-4l-1-1h5v-3h-4l-1-1zm8 4v-7h1v-1h6v1h-6v3h6v1h-6v3h6v1h-5s-1 0-1-1h-1zm10-7l6 6v-7l1 1v7l-1 1v-1l-6-6v6l-1 1v-9s1 0 1 1zm14 4v3c0 1 0 1-1 1v-9c1 0 1 0 1 1v3h5v-3c0-1 0-1 1-1v9c-1 0-1 0-1-1v-3h-5zm17 3l-5-3v4l-1-1v-7l1-1v3l1 1 4-3v-1c0 1 0 1 1 1h-1l-3 3 4 4-1 1v-1zm7-7l6 6v-7c1 0 1 0 1 1v7c0 1 0 1-1 1v-1l-6-6v6c0 1 0 1-1 1v-8c0-1 0-1 1-1v1zm9 7v-7s1 0 1-1h6v1h-6v7h5v-3h-3v-1h3l1 1v3h-1c0 1 0 1-1 1h-4v-1h-1zm-66-3h-4v-1h4v1z" class="fil0"/>
      <path id="1" d="M76 31l-3-3h1v-1 1l3 2 2-2s0-1 1-1v1l-3 3v5s-1 0-1-1v-4zm1-1zm6 3l-1 2v1h-1v-1l4-7v-1s1 0 1 1l3 7v1h-1v-1l-1-2h-4zm4-1l-2-3-1 3h3zm6-4h-3v-1h7v1h-3v8c-1 0-1 0-1-1v-7zm10 3v-3h1v-1h5v1h-5v3h5v1h1v2s0 1-1 1l-1 1h-4l-1-1h5v-3h-4l-1-1zm8 4v-7h1v-1h6v1h-6v3h6v1h-6v3h6v1h-5s-1 0-1-1h-1zm10-7l6 6v-7l1 1v7l-1 1v-1l-6-6v6l-1 1v-9s1 0 1 1zm14 4v3c0 1 0 1-1 1v-9c1 0 1 0 1 1v3h5v-3c0-1 0-1 1-1v9c-1 0-1 0-1-1v-3h-5zm17 3l-5-3v4l-1-1v-7l1-1v3l1 1 4-3v-1c0 1 0 1 1 1h-1l-3 3 4 4-1 1v-1zm7-7l6 6v-7c1 0 1 0 1 1v7c0 1 0 1-1 1v-1l-6-6v6c0 1 0 1-1 1v-8c0-1 0-1 1-1v1zm9 7v-7s1 0 1-1h6v1h-6v7h5v-3h-3v-1h3l1 1v3h-1c0 1 0 1-1 1h-4v-1h-1zm-66-3h-4v-1h4v1z" class="fil2 str0"/>
      <path d="M143 27h1.673v8.583H143zm12 0h1.673v8.583H155z" class="fil1"/>
    </g>
  </g>
</svg>
